<svg width="52" height="52" viewBox="0 0 52 52" fill="none" xmlns="http://www.w3.org/2000/svg">
<rect width="52" height="52" rx="12" fill="#131512"/>
<g clip-path="url(#clip0_410_1844)">
<path d="M20.1194 20.6717L16.8535 23.9375C16.3232 24.4932 16.0273 25.2319 16.0273 26C16.0273 26.7682 16.3232 27.5068 16.8535 28.0625L20.1194 31.3284C20.2347 31.4478 20.3726 31.543 20.5251 31.6085C20.6776 31.674 20.8416 31.7085 21.0076 31.7099C21.1736 31.7114 21.3382 31.6797 21.4918 31.6169C21.6454 31.554 21.785 31.4612 21.9024 31.3439C22.0197 31.2265 22.1125 31.0869 22.1754 30.9333C22.2382 30.7797 22.2699 30.6151 22.2684 30.4491C22.267 30.2831 22.2325 30.1191 22.167 29.9666C22.1015 29.8141 22.0063 29.6762 21.8869 29.5609L19.571 27.2434L34.7794 27.2242C35.1109 27.2242 35.4288 27.0925 35.6633 26.8581C35.8977 26.6237 36.0294 26.3057 36.0294 25.9742C36.0294 25.6427 35.8977 25.3247 35.6633 25.0903C35.4288 24.8559 35.1109 24.7242 34.7794 24.7242L19.5835 24.7434L21.8869 22.4392C22.1146 22.2034 22.2406 21.8877 22.2377 21.5599C22.2349 21.2322 22.1034 20.9187 21.8716 20.6869C21.6399 20.4552 21.3264 20.3237 20.9986 20.3208C20.6709 20.318 20.3551 20.444 20.1194 20.6717Z" fill="#4D4D4D"/>
</g>
<defs>
<clipPath id="clip0_410_1844">
<rect width="20" height="20" fill="white" transform="translate(16 16)"/>
</clipPath>
</defs>
</svg>
