<svg width="34" height="34" viewBox="0 0 34 34" fill="none" xmlns="http://www.w3.org/2000/svg">
<g id="fi-br-bell-ring" clip-path="url(#clip0_443_1762)">
<path id="Vector" d="M3.21403 19.8725C3.02254 19.8261 2.84206 19.7424 2.68291 19.6263C2.52375 19.5101 2.38905 19.3637 2.28648 19.1955C2.18391 19.0273 2.11549 18.8405 2.08513 18.6458C2.05477 18.4511 2.06306 18.2523 2.10953 18.0609L3.00614 14.3358C3.04585 14.1379 3.12511 13.95 3.23917 13.7834C3.35324 13.6168 3.49976 13.4749 3.66997 13.3663C3.84017 13.2577 4.03055 13.1846 4.22969 13.1513C4.42883 13.118 4.63265 13.1253 4.82891 13.1727C5.02517 13.2201 5.20985 13.3066 5.37187 13.4271C5.5339 13.5475 5.66993 13.6995 5.77183 13.8738C5.87372 14.0481 5.93938 14.2412 5.96486 14.4415C5.99034 14.6418 5.97513 14.8451 5.92013 15.0394L5.02281 18.7651C4.97642 18.9566 4.89275 19.1371 4.77659 19.2963C4.66043 19.4554 4.51406 19.5901 4.34582 19.6927C4.17759 19.7953 3.9908 19.8637 3.79612 19.894C3.60144 19.9244 3.40268 19.9161 3.2112 19.8696L3.21403 19.8725ZM29.2122 13.249C28.8252 13.3407 28.4904 13.5825 28.2816 13.921C28.0727 14.2595 28.0069 14.6672 28.0985 15.0542L28.9761 18.7602C29.0181 18.9552 29.0986 19.1398 29.2129 19.3033C29.3272 19.4668 29.4729 19.6059 29.6416 19.7124C29.8103 19.8189 29.9985 19.8906 30.1953 19.9235C30.392 19.9564 30.5934 19.9496 30.7875 19.9037C30.9816 19.8579 31.1646 19.7737 31.3258 19.6562C31.487 19.5387 31.6232 19.3902 31.7263 19.2195C31.8295 19.0487 31.8975 18.8591 31.9265 18.6618C31.9554 18.4644 31.9447 18.2632 31.895 18.0701L31.0175 14.3641C30.9723 14.1722 30.8897 13.9911 30.7745 13.8311C30.6592 13.6711 30.5136 13.5354 30.3458 13.4318C30.1781 13.3282 29.9916 13.2586 29.7969 13.2271C29.6023 13.1956 29.4034 13.2028 29.2115 13.2483L29.2122 13.249ZM25.7099 13.2158L27.3115 19.9085C27.5091 20.7252 27.5178 21.5762 27.3371 22.3968C27.1563 23.2173 26.7909 23.9859 26.2685 24.644C26.1309 24.8176 25.9836 24.9834 25.8273 25.1404C24.9547 26.0061 23.8173 26.5545 22.5965 26.6982C22.5796 27.7911 22.1356 28.834 21.3595 29.6037C20.5833 30.3733 19.5368 30.8086 18.4437 30.8164C17.3507 30.8241 16.2981 30.4038 15.5111 29.6452C14.7241 28.8866 14.2653 27.8501 14.2329 26.7576L12.1158 26.7533C11.2737 26.7568 10.4418 26.5683 9.68353 26.2021C8.92521 25.8358 8.26036 25.3015 7.73952 24.6398C7.22114 23.9873 6.85829 23.2253 6.67855 22.4116C6.4988 21.5979 6.50689 20.754 6.70219 19.9439L8.18711 13.669C8.57254 11.914 9.4755 10.3149 10.7793 9.07843C12.0831 7.84196 13.7277 7.02495 15.5007 6.73301L15.5 4.97868C15.5 4.58073 15.6581 4.19908 15.9395 3.91768C16.2209 3.63629 16.6025 3.4782 17.0005 3.4782C17.3984 3.4782 17.7801 3.63629 18.0615 3.91768C18.3429 4.19908 18.501 4.58073 18.501 4.97868V6.73089C20.1944 7.0169 21.7716 7.77868 23.0485 8.9273C24.3253 10.0759 25.2491 11.564 25.712 13.2179L25.7099 13.2158ZM17.0076 9.60457C15.6312 9.6004 14.2949 10.0681 13.2216 10.9297C12.1482 11.7912 11.4025 12.9947 11.1089 14.3394L9.62396 20.6326C9.53527 21.0028 9.53203 21.3883 9.61448 21.7598C9.69693 22.1314 9.86291 22.4794 10.0998 22.7773C10.3408 23.0829 10.6484 23.3295 10.9991 23.4984C11.3498 23.6672 11.7344 23.7538 12.1236 23.7517L21.9099 23.763C22.2965 23.7621 22.6779 23.6738 23.0255 23.5047C23.3731 23.3356 23.6779 23.09 23.9172 22.7864C24.1565 22.4828 24.324 22.129 24.4072 21.7515C24.4904 21.374 24.4871 20.9825 24.3975 20.6065L22.8101 13.966C22.4483 12.7078 21.6866 11.6017 20.6402 10.8151C19.5937 10.0284 18.3195 9.60397 17.0104 9.60599L17.0076 9.60457Z" fill="white"/>
</g>
<defs>
<clipPath id="clip0_443_1762">
<rect width="24" height="24" fill="white" transform="translate(0.0292969 17) rotate(-45)"/>
</clipPath>
</defs>
</svg>
