<svg width="32" height="32" viewBox="0 0 32 32" fill="none" xmlns="http://www.w3.org/2000/svg">
<g id="entypo:circle-with-cross">
<path id="Vector" d="M15.9986 2.56055C12.4341 2.56055 9.01557 3.97654 6.49508 6.49703C3.97459 9.01752 2.55859 12.436 2.55859 16.0005C2.55859 19.5651 3.97459 22.9836 6.49508 25.5041C9.01557 28.0245 12.4341 29.4405 15.9986 29.4405C19.5631 29.4405 22.9816 28.0245 25.5021 25.5041C28.0226 22.9836 29.4386 19.5651 29.4386 16.0005C29.4386 12.436 28.0226 9.01752 25.5021 6.49703C22.9816 3.97654 19.5631 2.56055 15.9986 2.56055V2.56055ZM23.661 20.8981L20.8946 23.6645L15.9986 18.7669L11.101 23.6629L8.33459 20.8965L13.2338 16.0005L8.33619 11.1029L11.1026 8.33815L15.9986 13.2341L20.8962 8.33655L23.6626 11.1029L18.7634 16.0005L23.661 20.8981Z" fill="#EB0300"/>
</g>
</svg>
