<svg width="21" height="20" viewBox="0 0 21 20" fill="none" xmlns="http://www.w3.org/2000/svg">
<g clip-path="url(#clip0_648_945)">
<path d="M4.60789 8.13711C5.42391 5.78219 7.74761 4.09091 10.5 4.09091C11.9795 4.09091 13.3159 4.59091 14.3659 5.40909L17.4204 2.5C15.5591 0.954545 13.1727 0 10.5 0C6.36128 0 2.798 2.24858 1.08496 5.54169L4.60789 8.13711Z" fill="#EA4335"/>
<path d="M14.0359 15.0112C13.0823 15.5976 11.8706 15.9098 10.5002 15.9098C7.7584 15.9098 5.44196 14.2315 4.61759 11.8906L1.08301 14.4466C2.79392 17.7454 6.35711 20.0007 10.5002 20.0007C13.0665 20.0007 15.5187 19.1319 17.3551 17.5004L14.0359 15.0112Z" fill="#34A853"/>
<path d="M17.3549 17.4995C19.2755 15.7932 20.5227 13.2529 20.5227 9.99982C20.5227 9.40891 20.4273 8.77255 20.2841 8.18164H10.5V12.0453H16.1318C15.8539 13.3445 15.108 14.3508 14.0356 15.0103L17.3549 17.4995Z" fill="#4A90E2"/>
<path d="M4.61736 11.8892C4.40854 11.2963 4.29545 10.6608 4.29545 9.99933C4.29545 9.34789 4.40513 8.72167 4.60792 8.13644L1.08499 5.54102C0.382014 6.88302 0 8.39548 0 9.99933C0 11.599 0.389183 13.1078 1.08278 14.4452L4.61736 11.8892Z" fill="#FBBC05"/>
</g>
<defs>
<clipPath id="clip0_648_945">
<rect width="21" height="20" fill="white"/>
</clipPath>
</defs>
</svg>
