<svg width="30" height="30" viewBox="0 0 30 30" fill="none" xmlns="http://www.w3.org/2000/svg">
<g clip-path="url(#clip0_703_1907)">
<path d="M15 30C17.9667 30 20.8668 29.1203 23.3335 27.472C25.8003 25.8238 27.7229 23.4811 28.8582 20.7403C29.9935 17.9994 30.2906 14.9834 29.7118 12.0736C29.133 9.16393 27.7044 6.49118 25.6066 4.3934C23.5088 2.29561 20.8361 0.866997 17.9263 0.288219C15.0166 -0.290559 12.0006 0.00649069 9.25974 1.14181C6.51885 2.27712 4.17617 4.19971 2.52795 6.66644C0.879729 9.13318 -7.15256e-06 12.0333 -7.15256e-06 15C0.0042942 18.9769 1.58603 22.7897 4.39814 25.6019C7.21025 28.414 11.0231 29.9957 15 30V30ZM15 3.75C17.225 3.75 19.4001 4.4098 21.2502 5.64596C23.1002 6.88213 24.5422 8.63914 25.3936 10.6948C26.2451 12.7505 26.4679 15.0125 26.0338 17.1948C25.5997 19.3771 24.5283 21.3816 22.9549 22.955C21.3816 24.5283 19.377 25.5998 17.1948 26.0338C15.0125 26.4679 12.7505 26.2451 10.6948 25.3936C8.63914 24.5422 6.88213 23.1002 5.64596 21.2502C4.40979 19.4001 3.74999 17.225 3.74999 15C3.7533 12.0173 4.93963 9.15777 7.0487 7.0487C9.15776 4.93963 12.0173 3.75331 15 3.75V3.75Z" fill="white"/>
<path d="M14.9941 6.24951C13.9586 6.24951 13.1191 7.08898 13.1191 8.12451C13.1191 9.16005 13.9586 9.99951 14.9941 9.99951C16.0297 9.99951 16.8691 9.16005 16.8691 8.12451C16.8691 7.08898 16.0297 6.24951 14.9941 6.24951Z" fill="white"/>
</g>
<path d="M15 22.5L15 13.75" stroke="white" stroke-width="3" stroke-linecap="round"/>
<defs>
<clipPath id="clip0_703_1907">
<rect width="30" height="30" fill="white" transform="matrix(-1 0 0 -1 30 30)"/>
</clipPath>
</defs>
</svg>
