<svg width="36" height="40" viewBox="0 0 36 40" fill="none" xmlns="http://www.w3.org/2000/svg">
<g filter="url(#filter0_d_741_2869)">
<g clip-path="url(#clip0_741_2869)">
<g filter="url(#filter1_i_741_2869)">
<rect x="4" y="4.5" width="28" height="28" rx="14" fill="white"/>
</g>
<g filter="url(#filter2_b_741_2869)">
<circle cx="18" cy="18.5" r="18" fill="#D9D9D9" fill-opacity="0.1"/>
</g>
<g clip-path="url(#clip1_741_2869)">
<path d="M22.6961 16.173V15.1962C22.6961 12.6026 20.5935 10.5 17.9999 10.5C15.4062 10.5 13.3037 12.6026 13.3037 15.1962V16.173C12.0698 16.8027 11.2925 18.0704 11.291 19.4557V22.8101C11.2932 24.847 12.9439 26.4978 14.9809 26.5H21.0189C23.0558 26.4977 24.7065 24.847 24.7087 22.8101V19.4557C24.7073 18.0704 23.93 16.8027 22.6961 16.173ZM17.9999 12.5127C19.482 12.5127 20.6834 13.7141 20.6834 15.1962V15.7658H15.3163V15.1962C15.3163 13.7141 16.5178 12.5127 17.9999 12.5127ZM22.6961 22.8101C22.6961 23.7364 21.9452 24.4873 21.0189 24.4873H14.9809C14.0546 24.4873 13.3037 23.7364 13.3037 22.8101V19.4557C13.3037 18.5294 14.0546 17.7785 14.9809 17.7785H21.0189C21.9452 17.7785 22.6961 18.5294 22.6961 19.4557V22.8101V22.8101Z" fill="#374957"/>
<path d="M17.6645 19.791H18.3354C18.8912 19.791 19.3417 20.2416 19.3417 20.7973C19.3417 21.3531 18.8912 21.8037 18.3354 21.8037H17.6645C17.1088 21.8037 16.6582 21.3531 16.6582 20.7973C16.6582 20.2416 17.1088 19.791 17.6645 19.791Z" fill="#374957"/>
</g>
</g>
<rect x="2" y="2.5" width="32" height="32" rx="16" stroke="#565656" stroke-width="4"/>
</g>
<defs>
<filter id="filter0_d_741_2869" x="0" y="0.5" width="36" height="39" filterUnits="userSpaceOnUse" color-interpolation-filters="sRGB">
<feFlood flood-opacity="0" result="BackgroundImageFix"/>
<feColorMatrix in="SourceAlpha" type="matrix" values="0 0 0 0 0 0 0 0 0 0 0 0 0 0 0 0 0 0 127 0" result="hardAlpha"/>
<feOffset dy="3"/>
<feColorMatrix type="matrix" values="0 0 0 0 0.1875 0 0 0 0 0.1875 0 0 0 0 0.1875 0 0 0 1 0"/>
<feBlend mode="normal" in2="BackgroundImageFix" result="effect1_dropShadow_741_2869"/>
<feBlend mode="normal" in="SourceGraphic" in2="effect1_dropShadow_741_2869" result="shape"/>
</filter>
<filter id="filter1_i_741_2869" x="4" y="4.5" width="28" height="28" filterUnits="userSpaceOnUse" color-interpolation-filters="sRGB">
<feFlood flood-opacity="0" result="BackgroundImageFix"/>
<feBlend mode="normal" in="SourceGraphic" in2="BackgroundImageFix" result="shape"/>
<feColorMatrix in="SourceAlpha" type="matrix" values="0 0 0 0 0 0 0 0 0 0 0 0 0 0 0 0 0 0 127 0" result="hardAlpha"/>
<feOffset dx="3" dy="3"/>
<feComposite in2="hardAlpha" operator="arithmetic" k2="-1" k3="1"/>
<feColorMatrix type="matrix" values="0 0 0 0 0.45 0 0 0 0 0.45 0 0 0 0 0.45 0 0 0 0.25 0"/>
<feBlend mode="normal" in2="shape" result="effect1_innerShadow_741_2869"/>
</filter>
<filter id="filter2_b_741_2869" x="-4" y="-3.5" width="44" height="44" filterUnits="userSpaceOnUse" color-interpolation-filters="sRGB">
<feFlood flood-opacity="0" result="BackgroundImageFix"/>
<feGaussianBlur in="BackgroundImageFix" stdDeviation="2"/>
<feComposite in2="SourceAlpha" operator="in" result="effect1_backgroundBlur_741_2869"/>
<feBlend mode="normal" in="SourceGraphic" in2="effect1_backgroundBlur_741_2869" result="shape"/>
</filter>
<clipPath id="clip0_741_2869">
<rect x="4" y="4.5" width="28" height="28" rx="14" fill="white"/>
</clipPath>
<clipPath id="clip1_741_2869">
<rect width="16" height="16" fill="white" transform="translate(10 10.5)"/>
</clipPath>
</defs>
</svg>
