<svg width="14" height="16" viewBox="0 0 14 16" fill="none" xmlns="http://www.w3.org/2000/svg">
<g id="Group">
<path id="Vector" d="M11.6961 5.67303V4.69623C11.6961 2.10257 9.59354 0 6.99988 0C4.40622 0 2.30368 2.10257 2.30368 4.6962V5.673C1.06979 6.30268 0.292525 7.57038 0.291016 8.95565V12.3101C0.293248 14.347 1.94395 15.9978 3.98089 16H10.0189C12.0558 15.9977 13.7065 14.347 13.7087 12.3101V8.95568C13.7073 7.57041 12.93 6.30268 11.6961 5.67303ZM6.99988 2.01266C8.48195 2.01266 9.68342 3.21413 9.68342 4.6962V5.26578H4.31634V4.6962C4.31634 3.21413 5.5178 2.01266 6.99988 2.01266ZM11.6961 12.3101C11.6961 13.2364 10.9452 13.9873 10.0189 13.9873H3.98092C3.05462 13.9873 2.30371 13.2364 2.30371 12.3101V8.95568C2.30371 8.02939 3.05462 7.27848 3.98092 7.27848H10.0189C10.9452 7.27848 11.6961 8.02939 11.6961 8.95568V12.3101Z" fill="white"/>
<path id="Vector_2" d="M6.66453 9.29102H7.33541C7.89118 9.29102 8.34174 9.74157 8.34174 10.2973C8.34174 10.8531 7.89118 11.3037 7.33541 11.3037H6.66453C6.10876 11.3037 5.6582 10.8531 5.6582 10.2973C5.6582 9.74157 6.10876 9.29102 6.66453 9.29102Z" fill="white"/>
</g>
</svg>
