<svg width="25" height="24" viewBox="0 0 25 24" fill="none" xmlns="http://www.w3.org/2000/svg">
<g id="Group">
<path id="Vector" d="M8.26072 6.65122L11.0416 3.86936L11.0626 17.5008C11.0626 18.3292 11.7342 19.0007 12.5625 19.0007C13.3909 19.0007 14.0625 18.3292 14.0625 17.5008L14.0415 3.88637L16.8064 6.65127C17.3819 7.24712 18.3314 7.26362 18.9273 6.68811C19.5231 6.1126 19.5396 5.16305 18.9641 4.5672C18.952 4.55469 18.9397 4.5424 18.9273 4.53036L15.7154 1.31848C13.9581 -0.438835 11.109 -0.438835 9.35169 1.31843L9.35165 1.31848L6.13982 4.53031C5.56431 5.12616 5.58081 6.07571 6.17666 6.65122C6.75793 7.21262 7.67945 7.21262 8.26072 6.65122Z" fill="white"/>
<path id="Vector_2" d="M23 14.5C22.1716 14.5 21.5001 15.1715 21.5001 15.9999V20.5907C21.4995 20.8164 21.3168 20.9992 21.0911 20.9997H3.90981C3.68417 20.9991 3.50136 20.8164 3.50085 20.5907V15.9999C3.50085 15.1715 2.8293 14.5 2.00091 14.5C1.17253 14.5 0.500977 15.1715 0.500977 15.9999V20.5907C0.50318 22.4725 2.0281 23.9973 3.90981 23.9995H21.0911C22.9728 23.9973 24.4977 22.4724 24.4999 20.5907V15.9999C24.4999 15.1715 23.8284 14.5 23 14.5Z" fill="white"/>
</g>
</svg>
