<svg width="32" height="32" viewBox="0 0 32 32" fill="none" xmlns="http://www.w3.org/2000/svg">
<rect width="32" height="32" rx="16" fill="white" fill-opacity="0.1"/>
<rect x="0.5" y="0.5" width="31" height="31" rx="15.5" stroke="white" stroke-opacity="0.05"/>
<g clip-path="url(#clip0_264_1164)">
<path d="M23.3588 13.9229C21.7398 11.425 18.9758 9.90586 15.9993 9.87793C13.0228 9.90586 10.2588 11.425 8.63988 13.9229C7.78671 15.175 7.78671 16.8216 8.63988 18.0737C10.2579 20.5731 13.0221 22.0939 15.9993 22.1227C18.9758 22.0948 21.7398 20.5756 23.3588 18.0777C24.2138 16.8247 24.2138 15.1759 23.3588 13.9229ZM21.7022 16.9385C20.4662 18.899 18.3169 20.0951 15.9993 20.1123C13.6818 20.0951 11.5325 18.899 10.2964 16.9385C9.91109 16.3724 9.91109 15.6282 10.2964 15.0621C11.5325 13.1016 13.6817 11.9055 15.9993 11.8883C18.3168 11.9055 20.4661 13.1016 21.7022 15.0621C22.0875 15.6282 22.0875 16.3724 21.7022 16.9385Z" fill="white"/>
<path d="M15.9989 18.6809C17.4793 18.6809 18.6794 17.4808 18.6794 16.0004C18.6794 14.5199 17.4793 13.3198 15.9989 13.3198C14.5185 13.3198 13.3184 14.5199 13.3184 16.0004C13.3184 17.4808 14.5185 18.6809 15.9989 18.6809Z" fill="white"/>
</g>
<defs>
<clipPath id="clip0_264_1164">
<rect width="16" height="16" fill="white" transform="translate(8 8)"/>
</clipPath>
</defs>
</svg>
